<mxfile host="app.diagrams.net" modified="2022-03-24T03:44:34.109Z" agent="5.0 (Macintosh; Intel Mac OS X 10_15_7) AppleWebKit/537.36 (KHTML, like Gecko) Chrome/99.0.4844.74 Safari/537.36" etag="ZAoxbxCZgWn5yWYqFMij" version="17.1.3" type="github">
  <diagram id="C5RBs43oDa-KdzZeNtuy" name="Page-1">
    <mxGraphModel dx="1933" dy="1665" grid="1" gridSize="10" guides="1" tooltips="1" connect="1" arrows="1" fold="1" page="1" pageScale="1" pageWidth="827" pageHeight="1169" math="0" shadow="0">
      <root>
        <mxCell id="WIyWlLk6GJQsqaUBKTNV-0" />
        <mxCell id="WIyWlLk6GJQsqaUBKTNV-1" parent="WIyWlLk6GJQsqaUBKTNV-0" />
        <mxCell id="zkfFHV4jXpPFQw0GAbJ--0" value="Player" style="swimlane;fontStyle=2;align=center;verticalAlign=top;childLayout=stackLayout;horizontal=1;startSize=26;horizontalStack=0;resizeParent=1;resizeLast=0;collapsible=1;marginBottom=0;rounded=0;shadow=0;strokeWidth=1;" parent="WIyWlLk6GJQsqaUBKTNV-1" vertex="1">
          <mxGeometry x="-40" y="120" width="200" height="370" as="geometry">
            <mxRectangle x="230" y="140" width="160" height="26" as="alternateBounds" />
          </mxGeometry>
        </mxCell>
        <mxCell id="zkfFHV4jXpPFQw0GAbJ--2" value="-attack: int&#xa;-defense: int&#xa;-damage: int&#xa;-headGear: Gear&#xa;-handGear: Gear&#xa;-footwear: Gear&#xa;" style="text;align=left;verticalAlign=top;spacingLeft=4;spacingRight=4;overflow=hidden;rotatable=0;points=[[0,0.5],[1,0.5]];portConstraint=eastwest;rounded=0;shadow=0;html=0;" parent="zkfFHV4jXpPFQw0GAbJ--0" vertex="1">
          <mxGeometry y="26" width="200" height="94" as="geometry" />
        </mxCell>
        <mxCell id="zkfFHV4jXpPFQw0GAbJ--4" value="" style="line;html=1;strokeWidth=1;align=left;verticalAlign=middle;spacingTop=-1;spacingLeft=3;spacingRight=3;rotatable=0;labelPosition=right;points=[];portConstraint=eastwest;" parent="zkfFHV4jXpPFQw0GAbJ--0" vertex="1">
          <mxGeometry y="120" width="200" height="8" as="geometry" />
        </mxCell>
        <mxCell id="zkfFHV4jXpPFQw0GAbJ--3" value="&lt;&lt;Constructor&gt;&gt;&#xa;+Player(attack: int, defense: int,&#xa;damage: int)&#xa;&#xa;+getAttack(): int&#xa;+getDefense(): int&#xa;+chooseGear(Gear): void&#xa;+getHeadGear(): Gear&#xa;+getHandGear(): Gear&#xa;+getFootwear(): Gear&#xa;+fight(Player): void&#xa;+getDamage():int&#xa;+getStrength(): String&#xa;&#xa;-gearCheck(): Boolean&#xa;-gearCombine():void" style="text;align=left;verticalAlign=top;spacingLeft=4;spacingRight=4;overflow=hidden;rotatable=0;points=[[0,0.5],[1,0.5]];portConstraint=eastwest;rounded=0;shadow=0;html=0;" parent="zkfFHV4jXpPFQw0GAbJ--0" vertex="1">
          <mxGeometry y="128" width="200" height="242" as="geometry" />
        </mxCell>
        <mxCell id="zkfFHV4jXpPFQw0GAbJ--17" value="Gear" style="swimlane;fontStyle=0;align=center;verticalAlign=top;childLayout=stackLayout;horizontal=1;startSize=26;horizontalStack=0;resizeParent=1;resizeLast=0;collapsible=1;marginBottom=0;rounded=0;shadow=0;strokeWidth=1;" parent="WIyWlLk6GJQsqaUBKTNV-1" vertex="1">
          <mxGeometry x="419" y="150" width="160" height="190" as="geometry">
            <mxRectangle x="550" y="140" width="160" height="26" as="alternateBounds" />
          </mxGeometry>
        </mxCell>
        <mxCell id="zkfFHV4jXpPFQw0GAbJ--19" value="- attackVal: int&#xa;-defenceVal: int&#xa;-type: String" style="text;align=left;verticalAlign=top;spacingLeft=4;spacingRight=4;overflow=hidden;rotatable=0;points=[[0,0.5],[1,0.5]];portConstraint=eastwest;rounded=0;shadow=0;html=0;" parent="zkfFHV4jXpPFQw0GAbJ--17" vertex="1">
          <mxGeometry y="26" width="160" height="44" as="geometry" />
        </mxCell>
        <mxCell id="zkfFHV4jXpPFQw0GAbJ--23" value="" style="line;html=1;strokeWidth=1;align=left;verticalAlign=middle;spacingTop=-1;spacingLeft=3;spacingRight=3;rotatable=0;labelPosition=right;points=[];portConstraint=eastwest;" parent="zkfFHV4jXpPFQw0GAbJ--17" vertex="1">
          <mxGeometry y="70" width="160" height="8" as="geometry" />
        </mxCell>
        <mxCell id="zkfFHV4jXpPFQw0GAbJ--22" value="&lt;&lt;Constructor&gt;&gt;&#xa;+Gear(attackVal: int, &#xa;defenceVal: int, type:Type)&#xa;&#xa;+getAttack(): int&#xa;+getDefense(): int&#xa;+getType(): String" style="text;align=left;verticalAlign=top;spacingLeft=4;spacingRight=4;overflow=hidden;rotatable=0;points=[[0,0.5],[1,0.5]];portConstraint=eastwest;rounded=0;shadow=0;html=0;" parent="zkfFHV4jXpPFQw0GAbJ--17" vertex="1">
          <mxGeometry y="78" width="160" height="112" as="geometry" />
        </mxCell>
        <mxCell id="CDYfgBirS-ubAMsJzx61-5" value="" style="edgeStyle=orthogonalEdgeStyle;rounded=0;orthogonalLoop=1;jettySize=auto;html=1;exitX=0.566;exitY=-0.057;exitDx=0;exitDy=0;exitPerimeter=0;entryX=0.507;entryY=1.017;entryDx=0;entryDy=0;entryPerimeter=0;" parent="WIyWlLk6GJQsqaUBKTNV-1" source="zqmpd5THTZOuHRGenrsv-16" target="zkfFHV4jXpPFQw0GAbJ--22" edge="1">
          <mxGeometry relative="1" as="geometry">
            <Array as="points">
              <mxPoint x="291" y="400" />
              <mxPoint x="500" y="400" />
            </Array>
            <mxPoint x="290" y="420" as="sourcePoint" />
            <mxPoint x="500" y="370" as="targetPoint" />
          </mxGeometry>
        </mxCell>
        <mxCell id="zqmpd5THTZOuHRGenrsv-13" value="" style="text;strokeColor=none;fillColor=none;align=left;verticalAlign=middle;spacingTop=-1;spacingLeft=4;spacingRight=4;rotatable=0;labelPosition=right;points=[];portConstraint=eastwest;" parent="WIyWlLk6GJQsqaUBKTNV-1" vertex="1">
          <mxGeometry x="380" y="430" width="20" height="14" as="geometry" />
        </mxCell>
        <mxCell id="zqmpd5THTZOuHRGenrsv-16" value="Head Gear" style="swimlane;fontStyle=1;align=center;verticalAlign=top;childLayout=stackLayout;horizontal=1;startSize=26;horizontalStack=0;resizeParent=1;resizeParentMax=0;resizeLast=0;collapsible=1;marginBottom=0;" parent="WIyWlLk6GJQsqaUBKTNV-1" vertex="1">
          <mxGeometry x="200" y="430" width="160" height="200" as="geometry" />
        </mxCell>
        <mxCell id="zqmpd5THTZOuHRGenrsv-17" value="- attackVal: int&#xa;-defenceVal: int&#xa;-type: Type" style="text;strokeColor=none;fillColor=none;align=left;verticalAlign=top;spacingLeft=4;spacingRight=4;overflow=hidden;rotatable=0;points=[[0,0.5],[1,0.5]];portConstraint=eastwest;" parent="zqmpd5THTZOuHRGenrsv-16" vertex="1">
          <mxGeometry y="26" width="160" height="44" as="geometry" />
        </mxCell>
        <mxCell id="zqmpd5THTZOuHRGenrsv-18" value="" style="line;strokeWidth=1;fillColor=none;align=left;verticalAlign=middle;spacingTop=-1;spacingLeft=3;spacingRight=3;rotatable=0;labelPosition=right;points=[];portConstraint=eastwest;" parent="zqmpd5THTZOuHRGenrsv-16" vertex="1">
          <mxGeometry y="70" width="160" height="8" as="geometry" />
        </mxCell>
        <mxCell id="zqmpd5THTZOuHRGenrsv-19" value="&lt;&lt;Constructor&gt;&gt;&#xa;+Gear(attackVal: int, &#xa;defenceVal: int, type:Type)&#xa;&#xa;+getAttack(): int&#xa;+getDefense(): int&#xa;+getType(): String" style="text;strokeColor=none;fillColor=none;align=left;verticalAlign=top;spacingLeft=4;spacingRight=4;overflow=hidden;rotatable=0;points=[[0,0.5],[1,0.5]];portConstraint=eastwest;" parent="zqmpd5THTZOuHRGenrsv-16" vertex="1">
          <mxGeometry y="78" width="160" height="122" as="geometry" />
        </mxCell>
        <mxCell id="zqmpd5THTZOuHRGenrsv-27" value="" style="edgeStyle=elbowEdgeStyle;elbow=vertical;startArrow=none;endArrow=none;rounded=0;" parent="WIyWlLk6GJQsqaUBKTNV-1" edge="1">
          <mxGeometry relative="1" as="geometry">
            <mxPoint x="460" y="400" as="sourcePoint" />
            <mxPoint x="500" y="444" as="targetPoint" />
            <Array as="points">
              <mxPoint x="500" y="400" />
            </Array>
          </mxGeometry>
        </mxCell>
        <mxCell id="zqmpd5THTZOuHRGenrsv-29" value="" style="edgeStyle=elbowEdgeStyle;elbow=vertical;startArrow=none;endArrow=none;rounded=0;" parent="WIyWlLk6GJQsqaUBKTNV-1" edge="1">
          <mxGeometry relative="1" as="geometry">
            <mxPoint x="500" y="400" as="sourcePoint" />
            <mxPoint x="725" y="430" as="targetPoint" />
            <Array as="points">
              <mxPoint x="630" y="400" />
            </Array>
          </mxGeometry>
        </mxCell>
        <mxCell id="zqmpd5THTZOuHRGenrsv-30" value="Hand Gear" style="swimlane;fontStyle=1;align=center;verticalAlign=top;childLayout=stackLayout;horizontal=1;startSize=26;horizontalStack=0;resizeParent=1;resizeParentMax=0;resizeLast=0;collapsible=1;marginBottom=0;" parent="WIyWlLk6GJQsqaUBKTNV-1" vertex="1">
          <mxGeometry x="414" y="430" width="170" height="200" as="geometry" />
        </mxCell>
        <mxCell id="zqmpd5THTZOuHRGenrsv-31" value="- attackVal: int&#xa;-defenceVal: int&#xa;-type: Type" style="text;strokeColor=none;fillColor=none;align=left;verticalAlign=top;spacingLeft=4;spacingRight=4;overflow=hidden;rotatable=0;points=[[0,0.5],[1,0.5]];portConstraint=eastwest;" parent="zqmpd5THTZOuHRGenrsv-30" vertex="1">
          <mxGeometry y="26" width="170" height="44" as="geometry" />
        </mxCell>
        <mxCell id="zqmpd5THTZOuHRGenrsv-32" value="" style="line;strokeWidth=1;fillColor=none;align=left;verticalAlign=middle;spacingTop=-1;spacingLeft=3;spacingRight=3;rotatable=0;labelPosition=right;points=[];portConstraint=eastwest;" parent="zqmpd5THTZOuHRGenrsv-30" vertex="1">
          <mxGeometry y="70" width="170" height="8" as="geometry" />
        </mxCell>
        <mxCell id="zqmpd5THTZOuHRGenrsv-33" value="&lt;&lt;Constructor&gt;&gt;&#xa;+Gear(attackVal: int, &#xa;defenceVal: int, type:Type)&#xa;&#xa;+getAttack(): int&#xa;+getDefense(): int&#xa;+getType(): String" style="text;strokeColor=none;fillColor=none;align=left;verticalAlign=top;spacingLeft=4;spacingRight=4;overflow=hidden;rotatable=0;points=[[0,0.5],[1,0.5]];portConstraint=eastwest;" parent="zqmpd5THTZOuHRGenrsv-30" vertex="1">
          <mxGeometry y="78" width="170" height="122" as="geometry" />
        </mxCell>
        <mxCell id="zqmpd5THTZOuHRGenrsv-38" value="Footwear" style="swimlane;fontStyle=1;align=center;verticalAlign=top;childLayout=stackLayout;horizontal=1;startSize=26;horizontalStack=0;resizeParent=1;resizeParentMax=0;resizeLast=0;collapsible=1;marginBottom=0;" parent="WIyWlLk6GJQsqaUBKTNV-1" vertex="1">
          <mxGeometry x="630" y="430" width="170" height="200" as="geometry" />
        </mxCell>
        <mxCell id="zqmpd5THTZOuHRGenrsv-39" value="- attackVal: int&#xa;-defenceVal: int&#xa;-type: Type" style="text;strokeColor=none;fillColor=none;align=left;verticalAlign=top;spacingLeft=4;spacingRight=4;overflow=hidden;rotatable=0;points=[[0,0.5],[1,0.5]];portConstraint=eastwest;" parent="zqmpd5THTZOuHRGenrsv-38" vertex="1">
          <mxGeometry y="26" width="170" height="44" as="geometry" />
        </mxCell>
        <mxCell id="zqmpd5THTZOuHRGenrsv-40" value="" style="line;strokeWidth=1;fillColor=none;align=left;verticalAlign=middle;spacingTop=-1;spacingLeft=3;spacingRight=3;rotatable=0;labelPosition=right;points=[];portConstraint=eastwest;" parent="zqmpd5THTZOuHRGenrsv-38" vertex="1">
          <mxGeometry y="70" width="170" height="8" as="geometry" />
        </mxCell>
        <mxCell id="zqmpd5THTZOuHRGenrsv-41" value="&lt;&lt;Constructor&gt;&gt;&#xa;+Gear(attackVal: int, &#xa;defenceVal: int, type:Type)&#xa;&#xa;+getAttack(): int&#xa;+getDefense(): int&#xa;+getType(): String" style="text;strokeColor=none;fillColor=none;align=left;verticalAlign=top;spacingLeft=4;spacingRight=4;overflow=hidden;rotatable=0;points=[[0,0.5],[1,0.5]];portConstraint=eastwest;" parent="zqmpd5THTZOuHRGenrsv-38" vertex="1">
          <mxGeometry y="78" width="170" height="122" as="geometry" />
        </mxCell>
        <mxCell id="zqmpd5THTZOuHRGenrsv-70" value="" style="edgeStyle=orthogonalEdgeStyle;rounded=0;orthogonalLoop=1;jettySize=auto;html=1;" parent="WIyWlLk6GJQsqaUBKTNV-1" edge="1">
          <mxGeometry relative="1" as="geometry">
            <mxPoint x="504" y="8" as="sourcePoint" />
            <mxPoint x="504" y="8" as="targetPoint" />
          </mxGeometry>
        </mxCell>
        <mxCell id="zqmpd5THTZOuHRGenrsv-47" value="Use" style="endArrow=open;endSize=12;dashed=1;html=1;rounded=0;" parent="WIyWlLk6GJQsqaUBKTNV-1" edge="1">
          <mxGeometry width="160" relative="1" as="geometry">
            <mxPoint x="579" y="269.5" as="sourcePoint" />
            <mxPoint x="739" y="269.5" as="targetPoint" />
          </mxGeometry>
        </mxCell>
        <mxCell id="zqmpd5THTZOuHRGenrsv-48" value="Type" style="swimlane;fontStyle=0;childLayout=stackLayout;horizontal=1;startSize=26;fillColor=none;horizontalStack=0;resizeParent=1;resizeParentMax=0;resizeLast=0;collapsible=1;marginBottom=0;" parent="WIyWlLk6GJQsqaUBKTNV-1" vertex="1">
          <mxGeometry x="740" y="218" width="140" height="86" as="geometry" />
        </mxCell>
        <mxCell id="zqmpd5THTZOuHRGenrsv-53" value="SANDALS;&lt;br&gt;ARROWS;&lt;br&gt;HOVERBOARD;&lt;br&gt;GLAMDRING&lt;br&gt;" style="text;html=1;align=center;verticalAlign=middle;resizable=0;points=[];autosize=1;strokeColor=none;fillColor=none;" parent="zqmpd5THTZOuHRGenrsv-48" vertex="1">
          <mxGeometry y="26" width="140" height="60" as="geometry" />
        </mxCell>
        <mxCell id="zqmpd5THTZOuHRGenrsv-54" value="Use" style="endArrow=open;endSize=12;dashed=1;html=1;rounded=0;entryX=0.001;entryY=0.028;entryDx=0;entryDy=0;entryPerimeter=0;" parent="WIyWlLk6GJQsqaUBKTNV-1" target="zkfFHV4jXpPFQw0GAbJ--22" edge="1">
          <mxGeometry width="160" relative="1" as="geometry">
            <mxPoint x="160" y="231" as="sourcePoint" />
            <mxPoint x="290" y="230" as="targetPoint" />
            <Array as="points">
              <mxPoint x="310" y="230" />
            </Array>
          </mxGeometry>
        </mxCell>
        <mxCell id="zqmpd5THTZOuHRGenrsv-55" value="" style="endArrow=block;dashed=1;endFill=0;endSize=12;html=1;rounded=0;exitX=0.5;exitY=0;exitDx=0;exitDy=0;" parent="WIyWlLk6GJQsqaUBKTNV-1" source="zkfFHV4jXpPFQw0GAbJ--17" edge="1">
          <mxGeometry width="160" relative="1" as="geometry">
            <mxPoint x="440" y="140" as="sourcePoint" />
            <mxPoint x="500" y="100" as="targetPoint" />
          </mxGeometry>
        </mxCell>
        <mxCell id="zqmpd5THTZOuHRGenrsv-57" value="" style="endArrow=block;dashed=1;endFill=0;endSize=12;html=1;rounded=0;entryX=0.429;entryY=1.002;entryDx=0;entryDy=0;entryPerimeter=0;" parent="WIyWlLk6GJQsqaUBKTNV-1" target="zqmpd5THTZOuHRGenrsv-64" edge="1">
          <mxGeometry width="160" relative="1" as="geometry">
            <mxPoint x="49" y="120" as="sourcePoint" />
            <mxPoint x="39.92000000000007" y="77.5" as="targetPoint" />
          </mxGeometry>
        </mxCell>
        <mxCell id="zqmpd5THTZOuHRGenrsv-63" value="&lt;&lt;Interface&gt;&gt;&#xa;Players" style="swimlane;fontStyle=0;childLayout=stackLayout;horizontal=1;startSize=26;fillColor=none;horizontalStack=0;resizeParent=1;resizeParentMax=0;resizeLast=0;collapsible=1;marginBottom=0;" parent="WIyWlLk6GJQsqaUBKTNV-1" vertex="1">
          <mxGeometry x="-20" y="-100" width="160" height="166" as="geometry">
            <mxRectangle x="-30" y="-30" width="50" height="40" as="alternateBounds" />
          </mxGeometry>
        </mxCell>
        <mxCell id="zqmpd5THTZOuHRGenrsv-64" value="+getAttack(): int&#xa;+getDefense(): int&#xa;+chooseGear(Gear): void&#xa;+getHeadGear(): Gear&#xa;+getHandGear(): Gear[]&#xa;+getFootwear(): Gear[]&#xa;+fight(Player): void&#xa;+getDamage():int&#xa;+getStrength(): String" style="text;strokeColor=none;fillColor=none;align=left;verticalAlign=top;spacingLeft=4;spacingRight=4;overflow=hidden;rotatable=0;points=[[0,0.5],[1,0.5]];portConstraint=eastwest;" parent="zqmpd5THTZOuHRGenrsv-63" vertex="1">
          <mxGeometry y="26" width="160" height="140" as="geometry" />
        </mxCell>
        <mxCell id="zqmpd5THTZOuHRGenrsv-71" value="&lt;&lt;Interface&gt;&gt;&#xa;Gears" style="swimlane;fontStyle=0;childLayout=stackLayout;horizontal=1;startSize=26;fillColor=none;horizontalStack=0;resizeParent=1;resizeParentMax=0;resizeLast=0;collapsible=1;marginBottom=0;" parent="WIyWlLk6GJQsqaUBKTNV-1" vertex="1">
          <mxGeometry x="429" y="20" width="140" height="80" as="geometry" />
        </mxCell>
        <mxCell id="zqmpd5THTZOuHRGenrsv-72" value="+getAttack(): int&#xa;+getDefense(): int&#xa;+getType(): type" style="text;strokeColor=none;fillColor=none;align=left;verticalAlign=top;spacingLeft=4;spacingRight=4;overflow=hidden;rotatable=0;points=[[0,0.5],[1,0.5]];portConstraint=eastwest;" parent="zqmpd5THTZOuHRGenrsv-71" vertex="1">
          <mxGeometry y="26" width="140" height="54" as="geometry" />
        </mxCell>
        <mxCell id="q1gEq-JTTc2-V8-p2xDl-0" value="Implement" style="text;html=1;strokeColor=none;fillColor=none;align=center;verticalAlign=middle;whiteSpace=wrap;rounded=0;" vertex="1" parent="WIyWlLk6GJQsqaUBKTNV-1">
          <mxGeometry x="50" y="80" width="60" height="30" as="geometry" />
        </mxCell>
        <mxCell id="q1gEq-JTTc2-V8-p2xDl-1" value="Implement" style="text;html=1;strokeColor=none;fillColor=none;align=center;verticalAlign=middle;whiteSpace=wrap;rounded=0;" vertex="1" parent="WIyWlLk6GJQsqaUBKTNV-1">
          <mxGeometry x="500" y="110" width="60" height="30" as="geometry" />
        </mxCell>
        <mxCell id="q1gEq-JTTc2-V8-p2xDl-2" value="Extend" style="text;html=1;strokeColor=none;fillColor=none;align=center;verticalAlign=middle;whiteSpace=wrap;rounded=0;" vertex="1" parent="WIyWlLk6GJQsqaUBKTNV-1">
          <mxGeometry x="500" y="370" width="60" height="30" as="geometry" />
        </mxCell>
      </root>
    </mxGraphModel>
  </diagram>
</mxfile>
